<svg width="44" height="45" viewBox="0 0 44 45" fill="none" xmlns="http://www.w3.org/2000/svg">
<path d="M37.8544 5.56458L24.113 15.7705L26.6542 9.74913L37.8544 5.56458Z" fill="#E2761B" stroke="#E2761B" stroke-linecap="round" stroke-linejoin="round"/>
<path d="M6.13186 5.56458L19.7627 15.8671L17.3459 9.74913L6.13186 5.56458ZM32.9103 29.2218L29.2505 34.8289L37.081 36.9833L39.3321 29.3461L32.9103 29.2218ZM4.68176 29.3461L6.91905 36.9833L14.7496 34.8289L11.0898 29.2218L4.68176 29.3461Z" fill="#E4761B" stroke="#E4761B" stroke-linecap="round" stroke-linejoin="round"/>
<path d="M14.3075 19.7479L12.1255 23.0486L19.9008 23.3939L19.6245 15.0386L14.3075 19.7479ZM29.6785 19.7479L24.2925 14.9419L24.1129 23.3939L31.8744 23.0486L29.6785 19.7479ZM14.7495 34.8289L19.4174 32.5502L15.3847 29.4014L14.7495 34.8289ZM24.5687 32.5502L29.2504 34.8289L28.6013 29.4014L24.5687 32.5502Z" fill="#E4761B" stroke="#E4761B" stroke-linecap="round" stroke-linejoin="round"/>
<path d="M29.2505 34.8289L24.5687 32.5502L24.9416 35.6023L24.9002 36.8866L29.2505 34.8289ZM14.7495 34.8289L19.0998 36.8866L19.0722 35.6023L19.4174 32.5502L14.7495 34.8289Z" fill="#D7C1B3" stroke="#D7C1B3" stroke-linecap="round" stroke-linejoin="round"/>
<path d="M19.1688 27.3851L15.2743 26.2388L18.0226 24.9821L19.1688 27.3851ZM24.8173 27.3851L25.9636 24.9821L28.7256 26.2388L24.8173 27.3851Z" fill="#233447" stroke="#233447" stroke-linecap="round" stroke-linejoin="round"/>
<path d="M14.7495 34.8289L15.4124 29.2218L11.0897 29.3461L14.7495 34.8289ZM28.5875 29.2218L29.2504 34.8289L32.9102 29.3461L28.5875 29.2218ZM31.8744 23.0486L24.1129 23.3938L24.8311 27.3851L25.9774 24.982L28.7394 26.2388L31.8744 23.0486ZM15.2743 26.2388L18.0364 24.982L19.1688 27.3851L19.9008 23.3938L12.1255 23.0486L15.2743 26.2388Z" fill="#CD6116" stroke="#CD6116" stroke-linecap="round" stroke-linejoin="round"/>
<path d="M12.1255 23.0486L15.3847 29.4014L15.2743 26.2388L12.1255 23.0486ZM28.7394 26.2388L28.6013 29.4014L31.8744 23.0486L28.7394 26.2388ZM19.9008 23.3938L19.1688 27.3851L20.0803 32.0944L20.2874 25.8935L19.9008 23.3938ZM24.1129 23.3938L23.7401 25.8797L23.9058 32.0944L24.8311 27.3851L24.1129 23.3938Z" fill="#E4751F" stroke="#E4751F" stroke-linecap="round" stroke-linejoin="round"/>
<path d="M24.8311 27.385L23.9058 32.0944L24.5687 32.5501L28.6013 29.4014L28.7395 26.2388L24.8311 27.385ZM15.2743 26.2388L15.3848 29.4014L19.4174 32.5501L20.0803 32.0944L19.1688 27.385L15.2743 26.2388Z" fill="#F6851B" stroke="#F6851B" stroke-linecap="round" stroke-linejoin="round"/>
<path d="M24.9002 36.8866L24.9416 35.6022L24.5963 35.2984H19.3898L19.0722 35.6022L19.0998 36.8866L14.7495 34.8289L16.2687 36.0718L19.3484 38.2124H24.6378L27.7313 36.0718L29.2505 34.8289L24.9002 36.8866Z" fill="#C0AD9E" stroke="#C0AD9E" stroke-linecap="round" stroke-linejoin="round"/>
<path d="M24.5687 32.5501L23.9058 32.0944H20.0803L19.4174 32.5501L19.0721 35.6022L19.3898 35.2984H24.5963L24.9416 35.6022L24.5687 32.5501Z" fill="#161616" stroke="#161616" stroke-linecap="round" stroke-linejoin="round"/>
<path d="M38.4344 16.4334L39.6083 10.7987L37.8544 5.56458L24.5687 15.4252L29.6786 19.7479L36.9015 21.8609L38.5035 19.9965L37.8129 19.4993L38.9178 18.4911L38.0615 17.8282L39.1664 16.9858L38.4344 16.4334ZM4.39172 10.7987L5.56561 16.4334L4.81985 16.9858L5.92468 17.8282L5.08224 18.4911L6.18708 19.4993L5.49656 19.9965L7.08476 21.8609L14.3076 19.7479L19.4175 15.4252L6.13184 5.56458L4.39172 10.7987Z" fill="#763D16" stroke="#763D16" stroke-linecap="round" stroke-linejoin="round"/>
<path d="M36.9015 21.8609L29.6786 19.7479L31.8745 23.0486L28.6014 29.4014L32.9103 29.3461H39.3321L36.9015 21.8609ZM14.3076 19.7479L7.08478 21.8609L4.68176 29.3461H11.0898L15.3848 29.4014L12.1256 23.0486L14.3076 19.7479ZM24.113 23.3938L24.5688 15.4252L26.668 9.74915H17.3459L19.4175 15.4252L19.9008 23.3938L20.0666 25.9073L20.0804 32.0944H23.9059L23.9335 25.9073L24.113 23.3938Z" fill="#F6851B" stroke="#F6851B" stroke-linecap="round" stroke-linejoin="round"/>
</svg>
