<svg width="36" height="39" viewBox="0 0 36 39" fill="none" xmlns="http://www.w3.org/2000/svg">
<path fill-rule="evenodd" clip-rule="evenodd" d="M7.14919 3.52227L0.366571 10.4125C-0.142922 10.93 -0.111079 11.3506 0.398414 11.8681L21.224 33.024C21.7334 33.5416 22.1474 33.5739 22.6569 33.0563L32.178 23.3842C37.1455 18.3379 36.7316 13.0003 32.8149 9.02153C30.0127 6.17484 27.0831 5.13969 23.7396 6.07779C23.1982 6.23953 22.9435 6.17484 22.6887 5.91605C22.5955 5.82133 22.5193 5.70927 22.4227 5.56718C22.3874 5.51518 22.3493 5.45915 22.3066 5.39848C21.9245 4.81621 21.2876 3.91046 20.7781 3.39288C16.7658 -0.683017 11.6391 -1.03885 7.14919 3.52227ZM15.906 12.4181L14.282 14.0678C13.7725 14.5854 13.3585 14.5531 12.8491 14.0355L11.3206 12.4828C10.8111 11.9652 10.7793 11.5447 11.2887 11.0271L12.9127 9.37736C13.7407 8.53629 14.9188 8.43925 15.8742 9.40965C16.8613 10.4125 16.734 11.577 15.906 12.4181ZM26.3189 17.6263L22.052 21.9609C21.5425 22.4785 21.1285 22.4461 20.619 21.9286L19.0905 20.3758C18.581 19.8583 18.5492 19.4377 19.0587 18.9202L23.3257 14.5855C24.5676 13.3239 25.7458 13.0975 26.7647 14.1326C27.8156 15.2002 27.5608 16.3647 26.3189 17.6263ZM2.19764 21.4918C1.46488 22.2363 1.46488 23.4431 2.19765 24.1876L15.4657 37.666C16.1985 38.4105 17.3865 38.4105 18.1193 37.666C18.8521 36.9217 18.8521 35.7147 18.1193 34.9704L4.85125 21.4918C4.11848 20.7475 2.93042 20.7475 2.19764 21.4918Z" fill="url(#paint0_linear_35_1177)"/>
<defs>
<linearGradient id="paint0_linear_35_1177" x1="4.8417" y1="32.4184" x2="15.5785" y2="21.279" gradientUnits="userSpaceOnUse">
<stop offset="0.297348" stop-color="#FF3567"/>
<stop offset="1" stop-color="#1479FD"/>
</linearGradient>
</defs>
</svg>
