<svg width="40" height="41" viewBox="0 0 40 41" fill="none" xmlns="http://www.w3.org/2000/svg">
<path fill-rule="evenodd" clip-rule="evenodd" d="M20 0.248535C31.0469 0.248535 40 9.20313 40 20.2518C40 31.3005 31.0469 40.2551 20 40.2551C8.95312 40.2551 0 31.3005 0 20.2518C0 9.20313 8.95312 0.248535 20 0.248535Z" fill="url(#paint0_radial_35_1217)"/>
<path d="M12.7109 15.6963C16.7344 11.766 23.2656 11.766 27.2891 15.6963L27.7734 16.173C27.9766 16.3683 27.9766 16.6887 27.7734 16.884L26.1172 18.5015C26.0156 18.6031 25.8516 18.6031 25.75 18.5015L25.0859 17.8529C22.2734 15.1103 17.7266 15.1103 14.9141 17.8529L14.2031 18.5484C14.1016 18.65 13.9375 18.65 13.8359 18.5484L12.1797 16.9309C11.9766 16.7356 11.9766 16.4152 12.1797 16.2199L12.7109 15.6963ZM30.7188 19.0406L32.1953 20.4784C32.3984 20.6737 32.3984 20.9941 32.1953 21.1894L25.5469 27.6827C25.3438 27.878 25.0156 27.878 24.8203 27.6827L20.1016 23.0726C20.0547 23.0257 19.9688 23.0257 19.9219 23.0726L15.2031 27.6827C15 27.878 14.6719 27.878 14.4766 27.6827L7.80469 21.1894C7.60156 20.9941 7.60156 20.6737 7.80469 20.4784L9.28125 19.0406C9.48438 18.8453 9.8125 18.8453 10.0078 19.0406L14.7266 23.6508C14.7734 23.6977 14.8594 23.6977 14.9062 23.6508L19.625 19.0406C19.8281 18.8453 20.1562 18.8453 20.3516 19.0406L25.0703 23.6508C25.1172 23.6977 25.2031 23.6977 25.25 23.6508L29.9688 19.0406C30.1875 18.8453 30.5156 18.8453 30.7188 19.0406Z" fill="white"/>
<defs>
<radialGradient id="paint0_radial_35_1217" cx="0" cy="0" r="1" gradientUnits="userSpaceOnUse" gradientTransform="translate(-0.00162601 20.2516) scale(40 40.0065)">
<stop stop-color="#5D9DF6"/>
<stop offset="1" stop-color="#006FFF"/>
</radialGradient>
</defs>
</svg>
