<svg width="40" height="41" viewBox="0 0 40 41" fill="none" xmlns="http://www.w3.org/2000/svg">
<path d="M40 20.2675C40 9.21999 31.0457 0.264221 20 0.264221C8.9543 0.264221 0 9.21999 0 20.2675C0 31.315 8.9543 40.2708 20 40.2708C31.0457 40.2708 40 31.315 40 20.2675Z" fill="#0052FF"/>
<path d="M20.0058 27.2999C16.121 27.2999 12.9745 24.1529 12.9745 20.2675C12.9745 16.3821 16.121 13.2351 20.0058 13.2351C23.4862 13.2351 26.3749 15.7726 26.9316 19.0954H34.0155C33.4179 11.8755 27.3768 6.2027 20.0058 6.2027C12.2421 6.2027 5.94324 12.5026 5.94324 20.2675C5.94324 28.0324 12.2421 34.3323 20.0058 34.3323C27.3768 34.3323 33.4179 28.6595 34.0155 21.4396H26.9257C26.3691 24.7624 23.4862 27.2999 20.0058 27.2999Z" fill="white"/>
</svg>
