<svg width="40" height="40" viewBox="0 0 40 40" fill="none" xmlns="http://www.w3.org/2000/svg">
<rect x="0.5" y="0.5" width="39" height="39" rx="4.5" stroke="#E83DCB"/>
<path d="M4.91455 31.6447C5.36619 30.9195 5.74652 30.2776 6.15062 29.6476C10.4888 22.7411 14.6249 15.692 18.9036 8.73791C19.8663 7.18067 20.5794 7.18067 21.554 8.76168C26.1536 16.2744 30.6582 23.8585 35.341 31.3356C35.3766 31.4069 35.4123 31.4782 35.4717 31.5971C34.8656 31.7041 34.2832 31.6447 33.7127 31.6447C32.9758 31.6566 32.1201 31.8705 31.5496 31.5615C30.9909 31.2524 30.7295 30.3965 30.3491 29.7784C27.4372 25.0235 24.5372 20.2686 21.6372 15.5018C21.3995 15.1095 21.1499 14.7291 20.8052 14.4319C20.4011 14.0991 20.0208 14.0991 19.6405 14.4557C19.3196 14.7529 19.07 15.1095 18.8323 15.478C15.6589 20.6965 12.4617 25.9031 9.30023 31.1335C9.05064 31.5496 8.77728 31.6803 8.31375 31.6684C7.2203 31.6209 6.12685 31.6447 4.91455 31.6447Z" fill="#E83DCB"/>
<path d="M20.0465 22.2446C19.5711 22.2446 19.0957 22.2565 18.6203 22.2446C17.9903 22.2209 17.5506 21.8286 17.4912 21.2463C17.4317 20.652 17.8239 20.0815 18.4657 20.0458C19.5235 19.9864 20.5932 19.9983 21.6629 20.0577C22.2809 20.0934 22.6375 20.6163 22.6018 21.2106C22.5662 21.8049 22.1502 22.2209 21.5203 22.2446C21.033 22.2565 20.5338 22.2446 20.0465 22.2446Z" fill="#E83DCB"/>
</svg>
