<svg width="27" height="28" viewBox="0 0 27 28" fill="none" xmlns="http://www.w3.org/2000/svg">
<path d="M13.5622 0.274956C17.7212 0.274956 21.8998 0.294771 26.0588 0.25514C26.8078 0.25514 27.0246 0.453291 26.9852 1.18645C26.9261 2.8311 26.9261 4.47576 26.9852 6.12041C27.0049 6.87338 26.7881 7.05172 26.0588 7.05172C20.047 7.03191 14.0353 7.05172 8.04327 7.01209C7.09716 7.01209 6.76208 7.19043 6.78179 8.24063C6.84092 14.2446 6.8015 20.2486 6.82121 26.2526C6.82121 26.9857 6.68324 27.3028 5.85539 27.2631C4.16027 27.2037 2.44545 27.2235 0.730625 27.2433C0.178727 27.2433 -0.0183794 27.0848 0.00133122 26.5102C0.0210419 17.9897 0.0210419 9.48898 0.00133122 0.968484C0.00133122 0.17588 0.434965 0.235325 0.947442 0.235325C5.14581 0.274956 9.34417 0.274956 13.5622 0.274956Z" fill="#758CFF"/>
<path d="M20.2639 13.769C22.2349 13.769 24.206 13.7888 26.1573 13.7492C26.8078 13.7294 26.9852 13.9474 26.9655 14.5814C26.9261 16.7215 26.9852 18.8615 26.9458 21.0015C26.8866 24.0531 24.3637 26.8272 21.3677 27.2037C20.599 27.3027 20.1653 27.2433 20.2244 26.2327C20.323 24.5484 20.2244 22.8642 20.2639 21.1997C20.2836 20.6251 20.0865 20.4665 19.5346 20.4863C17.8 20.526 16.0655 20.4665 14.3113 20.5062C13.7199 20.526 13.5228 20.3476 13.5228 19.7334C13.5623 18.0293 13.582 16.3054 13.5228 14.6013C13.5031 13.8681 13.7791 13.7492 14.4295 13.7492C16.3809 13.8087 18.3125 13.769 20.2639 13.769Z" fill="#758CFF"/>
</svg>
