<svg width="64" height="23" viewBox="0 0 64 23" fill="none" xmlns="http://www.w3.org/2000/svg">
<path d="M62.3059 9.72634C60.6264 8.065 58.956 6.39759 57.2947 4.72417C56.0169 3.38301 54.7211 2.05092 53.38 0.764133C51.1055 -1.54664 47.7435 1.89688 49.8549 4.28921C51.1507 5.75724 52.4919 7.17995 53.8512 8.59361C36.2621 8.20394 18.6367 8.10425 1.07483 9.31854C0.781391 9.34435 0.508301 9.47916 0.309345 9.69639C0.110389 9.91361 0 10.1975 0 10.4921C0 10.7866 0.110389 11.0705 0.309345 11.2877C0.508301 11.5049 0.781391 11.6398 1.07483 11.6656C19.0264 12.7439 37.0233 13.043 55.002 13.632C53.4253 15.2541 51.8485 16.8671 50.2899 18.4892C47.9519 20.9268 51.6763 24.6512 53.9871 22.1955C56.7782 19.2232 59.5511 16.2388 62.3059 13.2423C62.7664 12.7731 63.0243 12.1418 63.0243 11.4843C63.0243 10.8269 62.7664 10.1956 62.3059 9.72634Z" fill="#FDBF00"/>
</svg>
