<svg width="17" height="18" viewBox="0 0 17 18" fill="none" xmlns="http://www.w3.org/2000/svg">
<path d="M7.53175 0.0371094C11.6893 0.0371094 15.0635 3.4138 15.0635 7.57437C15.0635 11.7349 11.6893 15.1116 7.53175 15.1116C3.37422 15.1116 0 11.7349 0 7.57437C0 3.4138 3.37422 0.0371094 7.53175 0.0371094ZM7.53175 13.4367C10.7679 13.4367 13.3898 10.8129 13.3898 7.57437C13.3898 4.33502 10.7679 1.71206 7.53175 1.71206C4.29477 1.71206 1.67372 4.33502 1.67372 7.57437C1.67372 10.8129 4.29477 13.4367 7.53175 13.4367ZM14.6325 13.4961L17 15.8645L15.8158 17.0495L13.4492 14.6803L14.6325 13.4961Z" fill="white"/>
</svg>
