<svg width="11" height="18" viewBox="0 0 11 18" fill="none" xmlns="http://www.w3.org/2000/svg">
<path d="M5.30343 12.5377L5.30465 6.76923L0.0990906 9.19906L5.30343 12.5377Z" fill="#364482"/>
<path d="M5.33218 6.76923L5.33096 12.5386L10.5373 9.19882L5.33218 6.76923Z" fill="#2D386A"/>
<path d="M10.5319 9.16677L5.33096 0.076683L5.33218 6.73973L10.5319 9.16677Z" fill="#364482"/>
<path d="M5.33145 13.4805L5.33096 17.9334L10.5416 10.3024L5.33145 13.4805Z" fill="#364482"/>
<path d="M5.30461 17.9304L5.3051 13.4798L0.0958862 10.3024L5.30461 17.9304Z" fill="#495FBC"/>
<path d="M0.102295 9.1667L5.3025 6.73919L5.30128 0.0798721L0.102295 9.1667Z" fill="#495FBF"/>
<path d="M5.31682 12.578L5.32705 12.572L10.5723 9.20727L10.5828 9.20051L5.32948 0.0193362L5.31707 0L5.30465 0.0193362L0.0511169 9.20121L5.30684 12.5727L5.31682 12.578ZM10.5309 9.1658L5.33119 6.73923L5.32997 0.0764127L10.5309 9.1658ZM5.33119 6.76905L10.5365 9.19865L5.32997 12.5384L5.33119 6.76905ZM5.30197 12.5373L0.0976271 9.19865L5.30319 6.76882L5.30197 12.5373ZM0.102985 9.1665L5.30197 0.0808391V6.74016L0.102985 9.1665Z" fill="#495FBE"/>
<path d="M0 10.2129L5.30857 17.9874L5.3183 18L5.3278 17.9874L10.6364 10.2129L5.31806 13.4567L0 10.2129ZM5.30321 17.9303L0.0944828 10.3024L5.30369 13.4798L5.30321 17.9303ZM5.3317 13.4807L10.5429 10.3026L5.3317 17.9336V13.4807Z" fill="#495FBF"/>
</svg>
