<svg width="18" height="18" viewBox="0 0 18 18" fill="none" xmlns="http://www.w3.org/2000/svg">
<path d="M17.7644 7.59563L17.3565 8.60569C17.2277 8.94954 17.2277 9.31489 17.3565 9.65874L17.7644 10.6688C18.0005 11.2705 17.8073 11.9582 17.2707 12.3451L16.3691 12.9683C16.0686 13.1832 15.8754 13.5056 15.7895 13.8494L15.5963 14.924C15.4676 15.5687 14.9309 16.0415 14.2869 16.063L13.1922 16.106C12.8273 16.1275 12.4838 16.2779 12.2263 16.5358L11.475 17.3309C11.0242 17.8037 10.3158 17.9112 9.75771 17.5888L8.81322 17.0301C8.49124 16.8366 8.12633 16.7937 7.76141 16.8796L6.68813 17.1375C6.06563 17.288 5.4002 16.9871 5.09968 16.4068L4.60597 15.4183C4.43425 15.0959 4.15519 14.838 3.81175 14.7306L2.7814 14.3867C2.1589 14.1718 1.77252 13.5701 1.83691 12.9253L1.94424 11.8293C1.98717 11.464 1.87984 11.0986 1.64372 10.8192L0.956824 9.95961C0.548978 9.44383 0.548978 8.73464 0.956824 8.21886L1.64372 7.35923C1.87984 7.07985 1.98717 6.71451 1.94424 6.34916L1.83691 5.25313C1.77252 4.60841 2.1589 4.00667 2.7814 3.79176L3.81175 3.44791C4.15519 3.34046 4.43425 3.08257 4.60597 2.76021L5.09968 1.77163C5.4002 1.19138 6.04417 0.890512 6.68813 1.04095L7.76141 1.29884C8.10486 1.3848 8.49124 1.34182 8.81322 1.1484L9.75771 0.589641C10.3158 0.26728 11.0242 0.353243 11.475 0.84753L12.2263 1.64269C12.4838 1.90058 12.8273 2.0725 13.1922 2.0725L14.2869 2.11548C14.9309 2.13698 15.489 2.60977 15.5963 3.25449L15.7895 4.32903C15.8539 4.69437 16.0686 5.01674 16.3691 5.21015L17.2707 5.83338C17.8073 6.30618 18.022 6.99389 17.7644 7.59563Z" fill="#FDBF00"/>
<g opacity="0.15">
<path d="M5.72218 16.3422L5.22847 15.3537C5.05675 15.0313 4.7777 14.7734 4.43425 14.666L3.4039 14.3221C2.7814 14.1072 2.39502 13.5055 2.45941 12.8607L2.56674 11.7647C2.60967 11.3994 2.50235 11.034 2.26622 10.7547L1.57933 9.89502C1.17148 9.37924 1.17148 8.67005 1.57933 8.15427L2.26622 7.29464C2.50235 7.01526 2.60967 6.64992 2.56674 6.28457L2.45941 5.18855C2.39502 4.54382 2.7814 3.94208 3.4039 3.72717L4.43425 3.38332C4.7777 3.27587 5.05675 3.01798 5.22847 2.69562L5.72218 1.70704C5.89391 1.36319 6.19442 1.12679 6.51641 1.01934C5.93684 0.933376 5.35727 1.23425 5.09968 1.77152L4.60597 2.76009C4.43425 3.08245 4.15519 3.34034 3.81175 3.44779L2.7814 3.79165C2.1589 4.00655 1.77252 4.6083 1.83691 5.25302L1.94424 6.34905C1.98717 6.71439 1.87984 7.07973 1.64372 7.35911L0.956824 8.21874C0.548978 8.73452 0.548978 9.44372 0.956824 9.95949L1.64372 10.8191C1.87984 11.0985 1.98717 11.4638 1.94424 11.8292L1.83691 12.9252C1.77252 13.5699 2.1589 14.1717 2.7814 14.3866L3.81175 14.7304C4.15519 14.8379 4.43425 15.0958 4.60597 15.4181L5.09968 16.4067C5.4002 16.987 6.04417 17.2878 6.68813 17.1374L6.81693 17.1159C6.34468 17.03 5.93684 16.7721 5.72218 16.3422Z" fill="black"/>
<path d="M9.41424 1.08465L10.3587 0.525359C10.4446 0.482337 10.5304 0.439315 10.6163 0.417804C10.3158 0.374782 9.99381 0.439316 9.73622 0.589893L8.79174 1.14918C8.70587 1.1922 8.62001 1.23522 8.53415 1.25673C8.83467 1.29976 9.13519 1.25673 9.41424 1.08465Z" fill="black"/>
<path d="M13.7932 16.0201C13.6859 16.0201 13.5786 16.0417 13.4927 16.0632L14.2655 16.0201C14.3728 16.0201 14.4587 15.9986 14.566 15.9771L13.7932 16.0201Z" fill="black"/>
<path d="M10.3587 17.503L9.41425 16.9443C9.09227 16.7509 8.72735 16.7079 8.36244 16.7939L8.23364 16.8154C8.42683 16.8368 8.59856 16.9013 8.77028 16.9873L9.71477 17.5459C10.0797 17.7608 10.4875 17.7823 10.8739 17.6534C10.7022 17.6534 10.5305 17.6104 10.3587 17.503Z" fill="black"/>
</g>
<path d="M5.85098 7.76703L8.53418 10.8387L14.0294 6.41378" fill="#FDBF00"/>
<path d="M7.89021 12.4311C7.58969 12.4311 7.28918 12.3021 7.07452 12.0657L4.39132 8.99255C4.00494 8.54124 4.04787 7.87503 4.47718 7.4667C4.92796 7.07987 5.59339 7.12285 6.00124 7.55266L8.019 9.85218L12.72 6.0698C13.1707 5.70446 13.8576 5.76893 14.2226 6.24173C14.5875 6.71453 14.5231 7.38074 14.0508 7.74608L8.55564 12.1947C8.36245 12.3451 8.12633 12.4311 7.89021 12.4311Z" fill="white"/>
</svg>
